<svg width="14" height="14" viewBox="0 0 14 14" fill="none" xmlns="http://www.w3.org/2000/svg">
<path fill-rule="evenodd" clip-rule="evenodd" d="M14 7C14 10.866 10.866 14 7 14C3.13401 14 0 10.866 0 7C0 3.13401 3.13401 0 7 0C10.866 0 14 3.13401 14 7ZM6.16795 4.4453C6.4743 3.98577 7.09517 3.8616 7.5547 4.16795L10.5547 6.16795C10.8329 6.35342 11 6.66565 11 7C11 7.33435 10.8329 7.64658 10.5547 7.83205L7.5547 9.83205C7.09517 10.1384 6.4743 10.0142 6.16795 9.5547C5.8616 9.09517 5.98577 8.4743 6.4453 8.16795L6.69722 8H4C3.44772 8 3 7.55228 3 7C3 6.44772 3.44772 6 4 6H6.69722L6.4453 5.83205C5.98577 5.5257 5.8616 4.90483 6.16795 4.4453Z" fill="white"/>
</svg>
