<svg width="65" height="48" viewBox="0 0 65 48" fill="none" xmlns="http://www.w3.org/2000/svg">
<path fill-rule="evenodd" clip-rule="evenodd" d="M22.5475 0.00115162C21.0679 0.0364411 19.7265 0.879356 19.0528 2.19697L14.3171 11.4577C13.7214 12.6227 13.7279 14.0042 14.3347 15.1637L21.7913 29.4142L26.9885 39.3467C29.7413 44.6075 35.158 47.9262 41.0847 47.9985V48H52.8647C55.8135 48 58.6413 46.8286 60.7264 44.7437C62.8115 42.6586 63.9827 39.8306 63.9827 36.8818C63.9827 36.2286 63.4534 35.6991 62.8002 35.6991H47.1697L47.2209 35.6768L47.2207 35.6766C47.2009 35.6845 47.1811 35.692 47.1612 35.6991H45.9425C45.4742 35.5314 45.0767 35.1725 44.875 34.6756L44.8567 34.6829L32.8576 13.7446C32.8428 13.1632 33.1503 12.5976 33.6932 12.3068H51.4394C52.509 12.3068 53.5348 11.8819 54.2912 11.1255C55.0475 10.3691 55.4725 9.34347 55.4725 8.2737V4.03896C55.4725 2.96918 55.0475 1.94357 54.2912 1.18716C53.5348 0.430757 52.509 0.00587168 51.4394 0.00587168H22.8618C22.7576 0.00024929 22.6528 -0.00136104 22.5475 0.00115162ZM32.0609 12.3068H32.0336L32.0396 12.3174L32.0609 12.3068ZM19.6202 38.1881C19.6202 43.6061 15.228 47.9982 9.81008 47.9982C4.39212 47.9982 0 43.6061 0 38.1881C0 32.7702 4.39212 28.3781 9.81008 28.3781C15.228 28.3781 19.6202 32.7702 19.6202 38.1881Z" fill="#F3F7FB"/>
</svg>
