<svg width="74" height="79" viewBox="0 0 74 79" fill="none" xmlns="http://www.w3.org/2000/svg">
<path d="M6.27344 62.6094L32.6406 76.918C35.875 78.6758 38.8984 78.6758 42.168 76.918L68.5 62.6094C72.1914 60.6055 73.8438 58.3906 73.8438 53.5742V23.9375C73.8438 20.0352 72.3672 17.4688 68.8516 15.5703L44.4531 2.24609C39.9531 -0.214844 34.8555 -0.214844 30.3555 2.24609L5.92188 15.5703C2.44141 17.4688 0.964844 20.0352 0.964844 23.9375V53.5742C0.964844 58.3906 2.61719 60.6055 6.27344 62.6094ZM33.8711 13.7422H40.9023V10.0508L61.082 21.0898L40.9023 32.1289V28.5781H33.8711V32.1289L13.7266 21.0898L33.8711 10.0508V13.7422ZM33.8711 25.3438H40.9023V16.9766H33.8711V25.3438ZM28.9844 47.7734L33.168 45.6641V67.707L12.3555 56.2109L15.7305 54.4531L12.5312 48.1953L9.08594 49.9531V28.2617L29.6523 39.5469L25.7852 41.5156L28.9844 47.7734ZM59.043 54.4531L62.4531 56.2109L41.6406 67.707V45.6641L45.8242 47.7734L49.0234 41.5156L45.1211 39.5469L65.7227 28.2617V49.9531L62.2773 48.1953L59.043 54.4531ZM18.6133 53.0469L26.0664 49.25L22.8672 42.9922L15.4141 46.7539L18.6133 53.0469ZM48.7422 49.25L56.1602 53.0469L59.3594 46.7539L51.9414 42.9922L48.7422 49.25Z" fill="#FFC600"/>
</svg>
